<svg width="420" height="292" viewBox="0 0 420 292" fill="none" xmlns="http://www.w3.org/2000/svg">
<path d="M382.691 31.2348H299.3C295.054 31.2348 291.612 34.6767 291.612 38.9224V158.169C291.612 162.415 295.054 165.857 299.3 165.857H382.691C386.937 165.857 390.379 162.415 390.379 158.169V38.9224C390.379 34.6767 386.937 31.2348 382.691 31.2348Z" stroke="#CCDDE2" stroke-width="2.23146" stroke-miterlimit="10"/>
<path d="M379.092 45.104H303.911C301.788 45.104 300.067 46.825 300.067 48.9478V64.9377C300.067 67.0605 301.788 68.7815 303.911 68.7815H379.092C381.215 68.7815 382.936 67.0605 382.936 64.9377V48.9478C382.936 46.825 381.215 45.104 379.092 45.104Z" stroke="#CCDDE2" stroke-width="2.23146" stroke-miterlimit="10"/>
<path d="M340.995 55.0777C342.348 55.0777 343.444 53.9813 343.444 52.6291C343.444 51.2768 342.348 50.1805 340.995 50.1805C339.643 50.1805 338.547 51.2768 338.547 52.6291C338.547 53.9813 339.643 55.0777 340.995 55.0777Z" fill="#D7E8F0"/>
<path d="M334.154 63.7092C334.154 61.8945 334.875 60.1541 336.158 58.8712C337.441 57.5877 339.181 56.867 340.996 56.867C342.811 56.867 344.551 57.5877 345.834 58.8712C347.118 60.1541 347.838 61.8945 347.838 63.7092H334.154Z" fill="#D7E8F0"/>
<path d="M341.495 94.1592C338.886 94.1601 336.336 94.9344 334.168 96.3842C331.999 97.8339 330.31 99.8944 329.312 102.305C328.314 104.715 328.054 107.367 328.563 109.925C329.073 112.484 330.329 114.833 332.174 116.678C334.019 118.522 336.369 119.778 338.928 120.286C341.486 120.795 344.138 120.533 346.548 119.535C348.958 118.536 351.017 116.846 352.467 114.677C353.916 112.508 354.689 109.958 354.689 107.349C354.689 105.617 354.348 103.901 353.685 102.301C353.021 100.7 352.05 99.2454 350.824 98.0206C349.599 96.7958 348.145 95.8242 346.544 95.1617C344.943 94.4992 343.227 94.1583 341.495 94.1592ZM341.495 117.356C340.999 117.332 340.532 117.118 340.19 116.759C339.848 116.4 339.658 115.923 339.658 115.427C339.658 114.931 339.848 114.454 340.19 114.095C340.532 113.736 340.999 113.523 341.495 113.498C341.99 113.523 342.457 113.736 342.799 114.095C343.141 114.454 343.331 114.931 343.331 115.427C343.331 115.923 343.141 116.4 342.799 116.759C342.457 117.118 341.99 117.332 341.495 117.356ZM343.929 102.521C343.523 105.381 343.181 108.384 342.326 111.165C342.123 111.835 340.866 111.835 340.663 111.165C340.061 109.074 339.598 106.946 339.277 104.794C339.014 103.228 338.099 100.692 338.972 99.1719C339.744 97.7859 341.915 97.6473 343.176 98.3588C344.724 99.232 344.114 101.098 343.929 102.521Z" fill="#D7E8F0"/>
<path d="M197.171 57.9619C192.546 56.5828 187.617 56.6064 183.005 58.0289C178.394 59.4519 174.309 62.21 171.265 65.955C168.221 69.6999 166.357 74.2631 165.907 79.0679C165.457 83.8723 166.442 88.7025 168.737 92.9473C171.033 97.1922 174.535 100.661 178.802 102.915C183.069 105.17 187.908 106.108 192.708 105.612C197.508 105.115 202.054 103.206 205.769 100.127C209.484 97.0476 212.203 92.9353 213.581 88.3107C214.497 85.2402 214.798 82.0196 214.469 78.8328C214.14 75.6459 213.186 72.5551 211.662 69.7369C210.138 66.9187 208.074 64.4285 205.588 62.4082C203.101 60.3874 200.241 58.8767 197.171 57.9619ZM184.914 99.0799C184.033 98.7889 183.3 98.1661 182.87 97.3433C182.441 96.5209 182.349 95.5632 182.614 94.6738C182.879 93.7845 183.48 93.0337 184.29 92.5805C185.1 92.1273 186.054 92.0076 186.951 92.2469C187.412 92.3698 187.844 92.5842 188.22 92.8766C188.597 93.1695 188.911 93.535 189.144 93.9512C189.377 94.3675 189.525 94.8267 189.577 95.3008C189.629 95.7748 189.586 96.2548 189.45 96.7122C189.313 97.1691 189.087 97.5946 188.783 97.9628C188.48 98.3306 188.105 98.6341 187.682 98.8549C187.259 99.0758 186.796 99.2093 186.321 99.2481C185.845 99.2864 185.367 99.2296 184.914 99.0799ZM197.064 74.0672C194.833 78.9229 192.634 84.0649 189.672 88.5417C188.961 89.6228 186.729 88.9575 186.725 87.6639C186.763 83.6436 187.071 79.6306 187.649 75.6519C188.009 72.7459 187.727 67.7656 190.079 65.5295C192.167 63.529 196.085 64.3883 197.956 66.3103C200.206 68.6572 198.145 71.6464 197.064 74.0672Z" fill="#3D8BFD"/>
<path d="M129.026 111.982C127.334 113.704 126.19 115.889 125.74 118.26C125.29 120.632 125.553 123.084 126.496 125.306C127.439 127.528 129.02 129.42 131.038 130.744C133.057 132.068 135.422 132.763 137.836 132.743C140.25 132.722 142.604 131.986 144.6 130.628C146.595 129.27 148.143 127.351 149.048 125.113C149.953 122.875 150.174 120.419 149.683 118.055C149.192 115.692 148.011 113.527 146.29 111.834C143.981 109.565 140.865 108.306 137.628 108.333C134.39 108.361 131.296 109.674 129.026 111.982ZM144.336 127.03C144.172 127.197 143.977 127.33 143.761 127.421C143.545 127.513 143.314 127.561 143.08 127.564C142.845 127.565 142.613 127.522 142.396 127.434C142.179 127.346 141.981 127.217 141.814 127.053C141.646 126.889 141.513 126.693 141.422 126.477C141.33 126.262 141.282 126.03 141.28 125.796C141.278 125.562 141.322 125.329 141.409 125.112C141.497 124.895 141.627 124.697 141.791 124.53C142.122 124.192 142.574 124.001 143.047 123.996C143.52 123.992 143.975 124.176 144.313 124.507C144.651 124.838 144.843 125.291 144.847 125.764C144.851 126.237 144.667 126.692 144.336 127.03ZM136.126 115.808C137.748 117.933 139.508 120.109 140.788 122.474C141.098 123.042 140.284 123.86 139.712 123.574C137.947 122.611 136.249 121.53 134.63 120.34C133.424 119.504 131.16 118.459 130.721 116.893C130.324 115.507 131.645 113.964 132.911 113.599C134.468 113.146 135.304 114.759 136.126 115.808Z" fill="#3D8BFD"/>
<path d="M308.355 79.3516H372.791" stroke="#CCDDE2" stroke-width="2.23146" stroke-miterlimit="10"/>
<path d="M308.355 85.6949H372.791" stroke="#CCDDE2" stroke-width="2.23146" stroke-miterlimit="10"/>
<path d="M308.355 126.535H372.791" stroke="#CCDDE2" stroke-width="2.23146" stroke-miterlimit="10"/>
<path d="M323.32 132.538H357.822" stroke="#CCDDE2" stroke-width="2.23146" stroke-miterlimit="10"/>
<path d="M390.384 118.21C396.066 125.352 401.472 134.204 406.36 145.112C436.122 211.576 398.922 245.306 398.922 245.306" stroke="#9F9F9F" stroke-width="2.23146" stroke-miterlimit="10"/>
<path d="M79.5268 170.912C79.5268 170.912 35.3642 120.817 90.4346 96.0122C145.505 71.2075 156.408 67.761 152.435 41.9583C148.462 16.1556 179.693 -10.1184 228.808 7.24357C277.923 24.6055 278.908 57.3244 275.424 82.6189C273.447 97.0379 281.629 100.503 291.594 99.7776" stroke="#9F9F9F" stroke-width="2.23146" stroke-miterlimit="10"/>
<path d="M387.27 266.924C387.157 269.69 386.442 272.397 385.172 274.857C385.122 274.979 385.064 275.098 384.997 275.212C382.77 279.213 379.654 282.649 375.891 285.256L375.757 285.349C372.359 287.621 368.537 289.185 364.521 289.946H407.274C407.274 289.946 401.555 208.379 348.988 168.694C298.117 130.292 250.49 148.8 247.468 150.038C248.404 152.681 248.823 155.479 248.702 158.28C248.702 158.28 252.527 160.271 253.165 167.4C253.802 174.529 255.133 194.348 242.34 198.081C242.34 198.081 230.855 197.8 227.82 193.392C224.784 188.985 224.054 189.881 222.862 190.999C221.938 191.844 216.362 194.866 213.789 196.252C214.114 196.268 214.437 196.312 214.754 196.386C214.754 196.386 216.228 208.823 234.26 228.315C234.871 228.958 235.448 229.634 235.988 230.338C238.71 232.719 241.771 235.149 245.168 237.629L265.745 252.685C266.209 253.08 266.76 253.36 267.353 253.503C268.504 253.793 269.708 253.804 270.864 253.535C273.257 253.073 289.598 251.405 300.173 250.352C300.414 250.352 300.668 250.306 300.903 250.278L302.289 250.144C302.511 250.144 302.751 250.098 302.945 250.084L304.193 249.964C304.803 249.904 305.352 249.844 305.861 249.802L307.247 249.668C308.471 249.548 309.196 249.474 309.256 249.474C311.776 249.403 314.287 249.159 316.773 248.744C319.152 248.282 321.324 247.539 321.887 246.305C321.994 246.045 322.034 245.762 322.003 245.483C321.875 244.698 321.547 243.959 321.051 243.339C318.88 240.424 313.835 237.924 313.465 237.744C313.454 237.74 313.443 237.74 313.433 237.744L313.331 237.67L283.301 214.339H283.269C283.269 214.339 287.792 166.088 329.007 177.961C329.007 177.961 329.201 178.095 329.557 178.391C331.164 179.629 336.223 183.732 343.661 191.396C343.855 191.604 344.063 191.812 344.271 192.034C345.061 192.838 345.837 193.674 346.609 194.492C351.83 200.073 358.007 207.183 364.821 216.049L364.867 216.095C372.675 226.259 378.302 235.573 381.961 243.815V243.843C385.921 252.801 387.588 260.475 387.26 266.596C387.271 266.705 387.274 266.815 387.27 266.924ZM262.959 183.99C261.74 169.932 268.582 164.841 268.965 164.559C259.236 182.161 277.281 209.142 277.914 210.186C277.397 209.752 264.179 198.044 262.959 183.99Z" fill="#353642"/>
<path d="M237.115 181.232C236.609 181.605 236.081 181.947 235.535 182.258L232.366 176.714C239.674 172.976 241.726 166.388 238.51 162.771C237.611 161.781 236.452 161.064 235.165 160.701C231.931 159.722 229.691 161.163 228.171 163.099C226.93 164.781 226.02 166.685 225.491 168.707L223.948 150.911L223.828 149.525C223.828 149.525 220.464 147.857 211.354 149.345C202.243 150.833 200.566 155.864 196.653 153.632C192.74 151.401 190.522 151.581 190.522 151.581C189.409 155.67 186.429 155.67 186.429 155.67C185.723 155.584 185.03 155.416 184.364 155.166C180.136 151.281 178.991 144.54 178.991 144.54C183.426 143.99 183.768 139.722 183.26 136.224C185.717 137.684 189.182 137.786 194.047 134.663C208.004 125.737 222.317 130.569 227.348 131.313C229.594 131.641 232.051 130.851 234.089 129.927C234.352 130.399 234.719 130.805 235.161 131.115C238.557 133.48 241.358 136.602 243.343 140.234C256.44 164.716 242.081 177.716 237.115 181.232Z" fill="#3D8BFD"/>
<path d="M184.831 289.954H190.097C192.35 289.952 194.51 289.055 196.103 287.463C197.695 285.87 198.591 283.71 198.594 281.458V275.563C198.594 275.025 198.488 274.493 198.282 273.997C198.076 273.5 197.774 273.049 197.394 272.67C197.014 272.29 196.563 271.989 196.066 271.784C195.57 271.578 195.038 271.473 194.5 271.474H163.001C163.003 272.729 162.756 273.971 162.276 275.131C161.797 276.29 161.093 277.344 160.205 278.231C159.318 279.118 158.264 279.821 157.104 280.3C155.945 280.779 154.702 281.025 153.447 281.023H39.624C39.6254 283.392 40.5665 285.662 42.2413 287.337C43.9155 289.011 46.1863 289.953 48.5545 289.954H202.862C203.064 289.954 203.264 289.915 203.45 289.838C203.636 289.761 203.806 289.648 203.949 289.506C204.091 289.363 204.204 289.194 204.281 289.008C204.358 288.822 204.397 288.621 204.396 288.42V278.852C204.396 276.993 205.135 275.211 206.449 273.896C207.763 272.582 209.546 271.843 211.405 271.843C213.263 271.843 215.046 272.582 216.361 273.896C217.675 275.211 218.413 276.993 218.413 278.852V288.42C218.413 288.621 218.452 288.821 218.528 289.007C218.605 289.192 218.717 289.362 218.86 289.504C219.002 289.647 219.171 289.76 219.356 289.837C219.542 289.914 219.741 289.954 219.943 289.954H407.274C407.274 289.954 401.555 208.369 348.988 168.688C298.118 130.287 250.49 148.794 247.469 150.033L247.321 150.088" stroke="#212529" stroke-width="2.23146" stroke-miterlimit="10"/>
<path d="M194.796 170.001C194.794 170.513 194.64 171.015 194.354 171.44C194.068 171.866 193.662 172.197 193.188 172.392C192.713 172.588 192.192 172.638 191.689 172.537C191.186 172.436 190.724 172.189 190.362 171.826C190 171.463 189.753 171 189.653 170.497C189.553 169.994 189.604 169.473 189.8 168.999C189.996 168.525 190.328 168.12 190.754 167.834C191.181 167.549 191.682 167.396 192.195 167.395C192.396 167.396 192.596 167.421 192.791 167.469C192.522 167.554 192.287 167.722 192.121 167.95C191.955 168.178 191.866 168.453 191.867 168.735C191.866 168.912 191.899 169.087 191.966 169.251C192.033 169.415 192.131 169.564 192.256 169.69C192.38 169.815 192.528 169.916 192.692 169.984C192.855 170.052 193.03 170.088 193.207 170.088C193.53 170.082 193.842 169.963 194.086 169.751C194.331 169.539 194.494 169.248 194.547 168.929C194.706 169.264 194.791 169.63 194.796 170.001Z" fill="#212529"/>
<path d="M212.818 170.725C212.819 171.241 212.667 171.745 212.381 172.174C212.096 172.603 211.689 172.938 211.213 173.136C210.737 173.334 210.213 173.386 209.707 173.286C209.201 173.186 208.736 172.938 208.371 172.574C208.007 172.21 207.758 171.746 207.657 171.24C207.557 170.734 207.608 170.21 207.805 169.734C208.002 169.257 208.336 168.85 208.765 168.564C209.193 168.277 209.697 168.124 210.213 168.124C210.337 168.123 210.461 168.137 210.582 168.166C210.352 168.272 210.157 168.442 210.02 168.656C209.883 168.869 209.81 169.118 209.811 169.371C209.795 169.727 209.921 170.074 210.16 170.337C210.401 170.599 210.735 170.756 211.09 170.771C211.446 170.787 211.793 170.661 212.055 170.422C212.318 170.181 212.475 169.847 212.49 169.492C212.704 169.868 212.816 170.293 212.818 170.725Z" fill="#212529"/>
<path d="M233.604 126.268C233.304 128.292 233.678 130.066 235.165 131.119C238.562 133.485 241.363 136.607 243.347 140.239C258.972 169.433 235.535 182.281 235.535 182.281L232.366 176.737C241.49 172.08 242.423 162.96 235.165 160.724C227.907 158.488 225.491 168.731 225.491 168.731L223.828 149.535C223.828 149.535 220.465 147.867 211.354 149.354C202.243 150.842 200.566 155.873 196.653 153.642C192.74 151.41 190.522 151.59 190.522 151.59C189.409 155.679 186.429 155.679 186.429 155.679C177.697 154.566 175.646 142.484 175.646 142.484C180.077 141.93 180.418 137.661 179.915 134.168C182.368 135.628 185.838 135.735 190.703 132.607C204.66 123.681 218.972 128.518 223.999 129.262C227.473 129.766 231.46 127.64 233.604 126.268Z" stroke="#212529" stroke-width="2.23146" stroke-linecap="round" stroke-linejoin="round"/>
<path d="M241.661 271.04L245.112 269.654L247.7 276.635L247.293 289.303L243.796 289.936L230.522 289.363C230.522 289.363 231.446 281.638 234.269 277.965C237.092 274.293 241.661 271.04 241.661 271.04Z" fill="#3D8BFD"/>
<path d="M181.227 159.948C181.227 159.948 184.761 153.605 192.199 154.265" stroke="#212529" stroke-width="2.23146" stroke-miterlimit="10"/>
<path d="M206.766 154.264C206.766 154.264 215.267 152.356 218.242 157.082" stroke="#212529" stroke-width="2.23146" stroke-miterlimit="10"/>
<path d="M219.938 182.983C219.938 182.983 214.856 180.04 211.137 184.988" stroke="#212529" stroke-width="2.23146" stroke-miterlimit="10"/>
<path d="M187.824 155.282C187.824 155.282 184.207 197.837 211.183 197.051C215.803 196.917 220.395 193.882 224.784 188.999" stroke="#212529" stroke-width="2.23146" stroke-miterlimit="10"/>
<path d="M235.535 192.869L224.784 188.998C224.784 188.998 227.45 197.517 240.654 198.168C253.858 198.82 258.288 168.517 248.586 156.325" stroke="#212529" stroke-width="2.23146" stroke-linejoin="round"/>
<path d="M277.568 278.237C277.568 278.237 267.713 286.234 274.407 289.953" stroke="#212529" stroke-width="2.23146" stroke-miterlimit="10"/>
<path d="M269.945 270.795C269.945 270.795 252.851 280.469 267.529 289.954" stroke="#212529" stroke-width="2.23146" stroke-miterlimit="10"/>
<path d="M264.179 263.357C264.179 263.357 241.49 273.983 258.972 289.955" stroke="#212529" stroke-width="2.23146" stroke-miterlimit="10"/>
<path d="M359.592 289.954C359.592 289.954 387.117 289.954 387.487 263.357C387.857 236.759 334.112 169.972 299.333 160.682C264.553 151.391 263.061 176.852 263.061 177.896C263.061 178.94 261.019 189.908 269.945 201.61C276.838 210.656 307.284 233.239 320.793 243.052C321.289 243.413 321.664 243.916 321.867 244.495C322.07 245.074 322.092 245.701 321.93 246.293C321.768 246.885 321.429 247.413 320.96 247.808C320.49 248.203 319.911 248.445 319.3 248.503L259.555 254.241H259.518C258.954 254.343 237.868 258.233 231.447 264.84C231.447 264.84 227.848 267.505 229.709 271.599C231.571 275.692 237.291 274.343 237.448 274.19" stroke="#212529" stroke-width="2.23146" stroke-miterlimit="10"/>
<path opacity="0.26" d="M210.217 175.558C214.326 175.558 217.656 172.228 217.656 168.12C217.656 164.012 214.326 160.682 210.217 160.682C206.109 160.682 202.779 164.012 202.779 168.12C202.779 172.228 206.109 175.558 210.217 175.558Z" fill="white"/>
<path opacity="0.26" d="M191.34 174.823C195.448 174.823 198.778 171.493 198.778 167.385C198.778 163.277 195.448 159.947 191.34 159.947C187.232 159.947 183.902 163.277 183.902 167.385C183.902 171.493 187.232 174.823 191.34 174.823Z" fill="white"/>
<path d="M255.637 269.867C253.022 269.137 248.748 268.481 244.345 269.895C242.192 270.588 240.206 271.719 238.51 273.216C238.141 273.54 237.785 273.868 237.443 274.196C236.706 274.919 236.01 275.682 235.359 276.483C235.274 276.589 235.152 276.659 235.018 276.681C233.377 276.908 222.581 278.617 222.636 284.073C222.687 288.975 228.055 289.779 229.903 289.909C229.979 289.915 230.056 289.907 230.129 289.883C230.201 289.858 230.268 289.819 230.325 289.768C230.382 289.717 230.428 289.654 230.459 289.585C230.491 289.515 230.508 289.44 230.508 289.363C230.508 287.617 230.906 282.142 235.225 276.635" stroke="#212529" stroke-width="2.23146" stroke-miterlimit="10"/>
<path d="M158.358 231.358C159.624 241.564 151.691 246.179 143.02 246.863" stroke="#212529" stroke-width="2.23146" stroke-miterlimit="10"/>
<path d="M130.416 244.734C127.11 242.948 124.432 240.189 122.744 236.831C121.057 233.473 120.442 229.677 120.982 225.958C122.368 216.141 130.684 208.61 138.825 203.833C155.919 193.803 194.44 201.061 200.913 202.539C205.875 203.676 210.023 199.795 211.705 197.919C211.777 197.84 211.869 197.782 211.972 197.754C212.075 197.725 212.184 197.727 212.286 197.759C212.388 197.79 212.479 197.85 212.548 197.932C212.617 198.014 212.662 198.113 212.675 198.22C216.228 219.01 257.489 247.229 267.034 253.544" stroke="#212529" stroke-width="2.23146" stroke-miterlimit="10"/>
<path d="M168.767 224.3L155.105 232.778C154.291 233.285 153.38 233.616 152.431 233.749C151.481 233.882 150.514 233.814 149.592 233.55C148.669 233.286 147.813 232.832 147.077 232.217C146.341 231.602 145.743 230.839 145.32 229.978C144.558 228.432 144.407 226.656 144.897 225.003C145.387 223.35 146.482 221.943 147.963 221.062L168.753 208.676" stroke="#212529" stroke-width="2.23146" stroke-miterlimit="10"/>
<path d="M210.217 175.558C214.326 175.558 217.656 172.228 217.656 168.12C217.656 164.012 214.326 160.682 210.217 160.682C206.109 160.682 202.779 164.012 202.779 168.12C202.779 172.228 206.109 175.558 210.217 175.558Z" stroke="#212529" stroke-width="2.23146" stroke-miterlimit="10"/>
<path d="M191.34 173.71C194.833 173.71 197.665 170.878 197.665 167.385C197.665 163.892 194.833 161.06 191.34 161.06C187.847 161.06 185.015 163.892 185.015 167.385C185.015 170.878 187.847 173.71 191.34 173.71Z" stroke="white" stroke-width="2.23146" stroke-miterlimit="10"/>
<path d="M191.34 174.823C195.448 174.823 198.778 171.493 198.778 167.385C198.778 163.277 195.448 159.947 191.34 159.947C187.232 159.947 183.902 163.277 183.902 167.385C183.902 171.493 187.232 174.823 191.34 174.823Z" stroke="#212529" stroke-width="2.23146" stroke-miterlimit="10"/>
<path d="M202.816 167.386H198.778" stroke="#212529" stroke-width="2.23146" stroke-miterlimit="10"/>
<path d="M202.816 177.897H200.155C199.988 177.897 199.823 177.86 199.671 177.789C199.52 177.718 199.386 177.614 199.279 177.485C199.172 177.356 199.095 177.206 199.053 177.043C199.011 176.881 199.006 176.712 199.037 176.548L200.797 167.386" stroke="#212529" stroke-width="2.23146" stroke-miterlimit="10"/>
<path d="M149.423 203.283C149.423 203.283 139.938 205.33 136.593 219.652C134.56 228.347 131.77 239.439 129.894 246.813C129.653 247.758 129.632 248.747 129.831 249.702C130.031 250.658 130.446 251.555 131.045 252.325C131.644 253.096 132.411 253.72 133.288 254.148C134.164 254.578 135.127 254.801 136.103 254.801C137.561 254.801 138.975 254.305 140.112 253.393C141.249 252.482 142.042 251.21 142.359 249.788L146.327 231.983" stroke="#212529" stroke-width="2.23146" stroke-miterlimit="10"/>
<path d="M158.095 236.761C158.095 236.761 168.051 230.81 187.663 236.761C207.275 242.711 229.82 246.749 237.258 230.967" stroke="#212529" stroke-width="2.23146" stroke-miterlimit="10"/>
<path d="M244.35 269.894C244.35 269.894 251.28 277.804 247.067 289.954" stroke="#212529" stroke-width="2.23146" stroke-miterlimit="10"/>
<path d="M15.3504 171.539H124.844C128.371 171.534 131.797 172.716 134.57 174.895C137.343 177.074 139.302 180.123 140.132 183.551L157.563 255.743C158.034 257.691 158.056 259.72 157.628 261.678C157.201 263.636 156.335 265.471 155.095 267.046C153.855 268.62 152.275 269.893 150.472 270.768C148.669 271.643 146.691 272.098 144.687 272.098H35.4751C31.9551 272.101 28.5358 270.922 25.7661 268.749C22.9966 266.577 21.0368 263.537 20.2014 260.118L2.48828 187.94C2.00997 185.99 1.98123 183.956 2.40419 181.994C2.82715 180.031 3.69077 178.19 4.92971 176.61C6.16871 175.03 7.75064 173.753 9.55591 172.874C11.3612 171.996 13.3426 171.539 15.3504 171.539Z" fill="#3D8BFD"/>
<path d="M19.3374 174.645H122.068C125.377 174.649 128.589 175.763 131.19 177.81C133.791 179.856 135.63 182.716 136.413 185.931L152.777 253.656C153.219 255.483 153.24 257.387 152.839 259.223C152.439 261.06 151.626 262.782 150.464 264.259C149.301 265.737 147.818 266.931 146.127 267.752C144.435 268.572 142.58 268.999 140.7 268.999H38.2194C34.9202 268.992 31.7181 267.881 29.123 265.845C26.5275 263.808 24.6881 260.961 23.8974 257.758L7.26535 190.029C6.81624 188.199 6.78917 186.292 7.18621 184.45C7.58321 182.608 8.39393 180.881 9.55697 179.399C10.72 177.917 12.2049 176.718 13.8994 175.894C15.5938 175.071 17.4534 174.643 19.3374 174.645Z" fill="#3D8BFD"/>
<path d="M15.3504 171.539H124.844C128.371 171.534 131.797 172.716 134.57 174.895C137.343 177.074 139.302 180.123 140.132 183.551L157.563 255.743C158.034 257.691 158.056 259.72 157.628 261.678C157.201 263.636 156.335 265.471 155.095 267.046C153.855 268.62 152.275 269.893 150.472 270.768C148.669 271.643 146.691 272.098 144.687 272.098H35.4751C31.9551 272.101 28.5358 270.922 25.7661 268.749C22.9966 266.577 21.0368 263.537 20.2014 260.118L2.48828 187.94C2.00997 185.99 1.98123 183.956 2.40419 181.994C2.82715 180.031 3.69077 178.19 4.92971 176.611C6.16871 175.03 7.75064 173.753 9.55591 172.874C11.3612 171.996 13.3426 171.539 15.3504 171.539Z" stroke="#212529" stroke-width="2.23146" stroke-miterlimit="10"/>
<path d="M66.6322 219.624L60.1041 189.192C59.9688 188.549 59.6158 187.971 59.1053 187.557C58.5948 187.142 57.9577 186.915 57.2998 186.914H24.9968C24.5622 186.916 24.1336 187.016 23.7434 187.207C23.3533 187.398 23.0117 187.675 22.7446 188.018C22.4775 188.361 22.2919 188.76 22.2018 189.185C22.1118 189.61 22.1196 190.051 22.2248 190.472L29.7785 221.26C29.8722 221.689 30.0723 222.087 30.3606 222.419C30.6193 222.748 30.9487 223.014 31.3248 223.197C31.7008 223.381 32.1139 223.476 32.532 223.477H32.592L63.8556 223.108C64.2779 223.102 64.6932 223.002 65.0725 222.817C65.4518 222.632 65.7858 222.365 66.0501 222.036C66.3194 221.702 66.5112 221.312 66.6119 220.895C66.7126 220.478 66.7195 220.044 66.6322 219.624ZM24.3823 189.927C24.3589 189.836 24.3567 189.741 24.3759 189.648C24.3951 189.556 24.4352 189.47 24.4932 189.395C24.5525 189.318 24.6287 189.255 24.716 189.212C24.8033 189.169 24.8993 189.146 24.9968 189.146H57.2998C57.4453 189.145 57.5867 189.195 57.6994 189.287C57.8126 189.379 57.8898 189.507 57.9189 189.65L62.89 212.828C46.2903 196.801 44.41 215.189 44.41 215.189C35.0406 210.31 32.3333 215.651 31.5479 219.167L24.3823 189.927Z" fill="#D7E8F0"/>
<path d="M33.7104 200.974C35.5122 200.415 36.3669 198.026 35.6277 195.637C34.8885 193.249 32.8234 191.771 31.0077 192.33C29.1921 192.889 28.3512 195.277 29.095 197.661C29.8389 200.045 31.9132 201.533 33.7104 200.974Z" fill="#D7E8F0"/>
<path d="M41.6196 200.428H52.2179C53.5346 200.428 54.8559 200.428 56.1726 200.428H56.362C56.7325 200.438 57.1012 200.369 57.4431 200.225C57.6792 200.108 57.8801 199.93 58.0247 199.71C58.1698 199.49 58.2534 199.235 58.2677 198.972C58.2816 198.708 58.2257 198.446 58.1051 198.212C57.9845 197.978 57.8039 197.779 57.5817 197.637C57.3327 197.524 57.1058 197.368 56.9118 197.175C56.7833 196.973 56.6951 196.747 56.6531 196.51C56.4082 195.842 55.9356 195.28 55.3179 194.926C54.8684 194.623 54.3629 194.415 53.8307 194.312C53.2989 194.21 52.7519 194.216 52.2225 194.33C51.7 194.462 51.2218 194.729 50.8365 195.106C50.5085 195.429 50.4438 195.863 50.1897 196.224C50.0234 196.459 49.9171 196.385 49.6907 196.256C49.4643 196.127 49.3396 196.03 49.1548 195.937C48.7903 195.742 48.4119 195.574 48.0229 195.434C47.2306 195.14 46.3856 195.016 45.542 195.069C44.0589 195.184 42.5805 196.067 42.0631 197.462C41.5969 197.468 41.1479 197.641 40.7977 197.948C40.447 198.255 40.2174 198.678 40.1504 199.139C40.1199 199.317 40.1315 199.5 40.1841 199.672C40.2373 199.845 40.3301 200.002 40.4553 200.132C40.7921 200.374 41.2079 200.48 41.6196 200.428Z" fill="#D7E8F0"/>
<path d="M117.6 199.771L116.75 196.274C116.18 193.923 114.836 191.832 112.934 190.337C111.032 188.841 108.682 188.03 106.263 188.032H94.588C93.2561 188.03 91.9417 188.336 90.7469 188.926C89.5527 189.515 88.5104 190.372 87.701 191.431C86.892 192.489 86.3381 193.719 86.0821 195.026C85.8262 196.333 85.8756 197.682 86.2258 198.967L87.1914 202.52C87.8082 204.806 89.1614 206.824 91.0412 208.263C92.9216 209.703 95.2233 210.482 97.591 210.48H109.196C110.507 210.479 111.801 210.18 112.979 209.607C114.158 209.032 115.191 208.198 116 207.167C116.809 206.136 117.374 204.934 117.651 203.653C117.928 202.372 117.911 201.045 117.6 199.771ZM104.761 200.635L100.774 203.088C100.621 203.186 100.447 203.247 100.266 203.266C100.084 203.285 99.9015 203.261 99.731 203.198C99.5605 203.134 99.4071 203.032 99.2824 202.899C99.1581 202.766 99.0662 202.606 99.014 202.432L97.5125 197.526C97.4496 197.308 97.4496 197.077 97.5129 196.859C97.5762 196.641 97.7 196.446 97.8696 196.296C98.0396 196.146 98.2489 196.047 98.4725 196.012C98.6966 195.976 98.9257 196.004 99.1341 196.093L104.664 198.537C104.862 198.627 105.032 198.768 105.154 198.947C105.277 199.126 105.348 199.334 105.36 199.551C105.372 199.768 105.324 199.983 105.222 200.174C105.119 200.366 104.966 200.525 104.78 200.635H104.761Z" fill="white"/>
<path d="M114.994 231.187H94.5693C93.6342 231.186 92.7199 230.912 91.9373 230.4C91.1547 229.889 90.5379 229.16 90.1618 228.304C90.0454 228.041 89.9826 227.756 89.9771 227.468C89.9821 226.911 90.2062 226.378 90.6017 225.985C90.9971 225.593 91.5312 225.372 92.0884 225.37H113.802C112.781 227.098 113.299 229.487 114.994 231.187Z" fill="#D7E8F0"/>
<path d="M128.226 229.09C128.225 229.646 128.003 230.178 127.61 230.572C127.218 230.965 126.684 231.186 126.129 231.187H114.994C113.299 229.487 112.781 227.098 113.802 225.37H123.606C124.54 225.371 125.453 225.643 126.235 226.152C127.018 226.661 127.635 227.386 128.014 228.239C128.142 228.506 128.214 228.795 128.226 229.09Z" fill="#3D8BFD"/>
<path d="M123.093 231.187C123.036 231.299 122.969 231.406 122.895 231.506C121.435 233.497 118.275 233.682 115.821 231.89C115.529 231.677 115.252 231.442 114.994 231.187C113.299 229.487 112.781 227.099 113.802 225.371C113.86 225.261 113.926 225.156 114.001 225.057C115.447 223.052 118.621 222.876 121.061 224.655C121.356 224.873 121.636 225.112 121.897 225.371C123.606 227.071 124.1 229.46 123.093 231.187Z" fill="white"/>
<path d="M133.34 241.934C133.335 242.492 133.111 243.024 132.716 243.417C132.32 243.81 131.786 244.031 131.229 244.032H50.2774C51.3123 242.295 50.7949 239.916 49.0947 238.22H128.748C129.682 238.22 130.597 238.492 131.378 239.003C132.16 239.514 132.776 240.242 133.151 241.098C133.271 241.361 133.335 241.646 133.34 241.934Z" fill="#3D8BFD"/>
<path d="M50.2774 244.008H40.1919C39.2582 244.009 38.3448 243.738 37.5622 243.228C36.78 242.719 36.1623 241.993 35.7844 241.139C35.6657 240.872 35.6028 240.582 35.5996 240.289C35.5992 240.014 35.6527 239.741 35.7581 239.487C35.8634 239.232 36.0177 239.001 36.2127 238.807C36.4076 238.612 36.6391 238.458 36.8941 238.353C37.1487 238.249 37.4217 238.196 37.6971 238.196H49.0946C50.7948 239.892 51.3122 242.271 50.2774 244.008Z" fill="#D7E8F0"/>
<path d="M50.2779 244.008C50.2303 244.122 50.1684 244.229 50.0931 244.327C48.647 246.332 45.4731 246.503 43.0291 244.724C42.7348 244.506 42.4567 244.267 42.1975 244.008C40.5112 242.308 39.9937 239.934 41.0009 238.196C41.0568 238.084 41.1233 237.977 41.1996 237.878C42.6595 235.886 45.8196 235.702 48.2728 237.49C48.5657 237.703 48.8406 237.939 49.0951 238.196C50.7953 239.892 51.3127 242.271 50.2779 244.008Z" fill="white"/>
<path d="M57.4203 256.718H44.6044C43.6711 256.718 42.7578 256.446 41.9756 255.937C41.1934 255.428 40.5757 254.703 40.1969 253.849C40.0698 253.592 39.9973 253.31 39.9844 253.022C39.9858 252.464 40.208 251.929 40.603 251.534C40.9975 251.139 41.5325 250.917 42.0911 250.916H56.2144C55.2304 252.662 55.734 255.037 57.4203 256.718Z" fill="#3D8BFD"/>
<path d="M137.734 254.654C137.727 255.208 137.5 255.737 137.103 256.124C136.707 256.511 136.173 256.725 135.618 256.719H57.4201C55.7338 255.019 55.2164 252.644 56.2236 250.907H133.142C134.076 250.906 134.99 251.179 135.772 251.69C136.554 252.201 137.17 252.929 137.545 253.785C137.667 254.059 137.731 254.354 137.734 254.654Z" fill="#D7E8F0"/>
<path d="M65.5144 256.718C65.4585 256.831 65.392 256.937 65.3157 257.037C63.8697 259.042 60.6957 259.213 58.2564 257.435C57.9607 257.217 57.6812 256.978 57.4201 256.718C55.7338 255.018 55.2164 252.644 56.2236 250.907C56.2813 250.796 56.3478 250.689 56.4222 250.588C57.8821 248.597 61.0422 248.421 63.4954 250.2C63.7893 250.412 64.0642 250.648 64.3178 250.907C66.018 252.621 66.5354 255.009 65.5144 256.718Z" fill="white"/>
<g opacity="0.21">
<path opacity="0.21" d="M67.7504 220.737L61.2362 190.305C61.1013 189.661 60.7488 189.084 60.2379 188.67C59.7273 188.256 59.0893 188.03 58.4319 188.032H26.1242C25.6867 188.032 25.2552 188.132 24.8627 188.325C24.4702 188.518 24.1273 188.798 23.8604 189.145C23.5958 189.485 23.4124 189.88 23.3243 190.301C23.2362 190.722 23.2458 191.158 23.3522 191.575L30.9059 222.367C30.9983 222.796 31.1965 223.195 31.4834 223.527C31.7431 223.856 32.0739 224.121 32.4504 224.304C32.8274 224.486 33.2409 224.58 33.6595 224.58H33.7334L64.9923 224.206C65.4136 224.201 65.8285 224.103 66.2069 223.918C66.5857 223.734 66.9188 223.467 67.1822 223.139C67.4478 222.805 67.6363 222.416 67.7347 222.001C67.8327 221.586 67.8382 221.154 67.7504 220.737ZM25.4959 191.044C25.4724 190.952 25.4705 190.857 25.4908 190.764C25.5107 190.672 25.5523 190.586 25.6114 190.513C25.6692 190.435 25.7445 190.372 25.8313 190.329C25.9177 190.285 26.0134 190.263 26.1104 190.263H58.4134C58.5589 190.262 58.7003 190.311 58.814 190.402C58.9276 190.493 59.0062 190.62 59.0371 190.762L64.0082 213.941C47.404 197.909 45.5282 216.301 45.5282 216.301C36.1635 211.423 33.4516 216.763 32.6708 220.279L25.4959 191.044Z" fill="#D7E8F0"/>
<path opacity="0.21" d="M34.828 202.087C36.6252 201.528 37.4845 199.139 36.7407 196.755C35.9969 194.371 33.941 192.884 32.1207 193.443C30.3004 194.002 29.4642 196.39 30.2034 198.779C30.9426 201.167 33.0539 202.664 34.828 202.087Z" fill="#D7E8F0"/>
<path opacity="0.21" d="M42.7562 201.545H53.3499C54.6712 201.545 55.9879 201.545 57.3092 201.545H57.494C57.865 201.555 58.2332 201.486 58.5751 201.341C58.8126 201.225 59.0144 201.048 59.16 200.828C59.306 200.608 59.3905 200.352 59.4044 200.089C59.4187 199.825 59.3619 199.562 59.2404 199.327C59.1193 199.093 58.9373 198.895 58.7137 198.754C58.467 198.637 58.2411 198.481 58.0438 198.292C57.919 198.086 57.8317 197.859 57.7851 197.622C57.5402 196.956 57.0694 196.397 56.4545 196.042C56.005 195.739 55.4982 195.53 54.9655 195.427C54.4328 195.325 53.8849 195.331 53.3545 195.446C52.8407 195.579 52.3718 195.847 51.9962 196.222C51.6636 196.546 51.6035 196.975 51.3494 197.34C51.1831 197.576 51.0768 197.502 50.8504 197.368C50.6241 197.234 50.4993 197.146 50.3145 197.049C49.95 196.856 49.5716 196.689 49.1826 196.55C48.3903 196.256 47.5453 196.13 46.7017 196.181C45.2187 196.296 43.7403 197.183 43.2182 198.574C42.752 198.582 42.3039 198.755 41.9542 199.063C41.6044 199.371 41.3762 199.795 41.3101 200.256C41.2801 200.433 41.2921 200.616 41.3439 200.788C41.3961 200.96 41.4871 201.118 41.6104 201.249C41.944 201.483 42.351 201.588 42.7562 201.545Z" fill="#D7E8F0"/>
<path opacity="0.21" d="M118.737 200.884L117.887 197.392C117.316 195.04 115.971 192.948 114.068 191.452C112.165 189.957 109.815 189.144 107.395 189.145H95.7015C94.3709 189.144 93.0584 189.45 91.865 190.039C90.6717 190.628 89.6303 191.483 88.8218 192.54C88.0129 193.596 87.4585 194.825 87.2011 196.13C86.9442 197.436 86.9914 198.783 87.3393 200.067L88.3048 203.624C88.9225 205.911 90.2767 207.929 92.1575 209.368C94.0383 210.807 96.3409 211.586 98.7091 211.584H110.315C111.626 211.585 112.92 211.288 114.099 210.715C115.279 210.143 116.313 209.31 117.124 208.28C117.935 207.249 118.502 206.049 118.781 204.768C119.06 203.487 119.045 202.159 118.737 200.884ZM105.893 201.739L101.892 204.206C101.739 204.304 101.565 204.365 101.385 204.384C101.204 204.403 101.021 204.379 100.851 204.316C100.681 204.252 100.528 204.15 100.404 204.017C100.28 203.884 100.188 203.724 100.137 203.55L98.6583 198.639C98.5964 198.422 98.5973 198.191 98.661 197.974C98.7248 197.758 98.8486 197.563 99.0186 197.413C99.1882 197.264 99.3965 197.166 99.6201 197.13C99.8433 197.095 100.072 197.123 100.28 197.212L105.768 199.651C105.963 199.741 106.13 199.882 106.251 200.06C106.372 200.237 106.443 200.444 106.455 200.658C106.468 200.872 106.423 201.086 106.323 201.276C106.224 201.467 106.076 201.626 105.893 201.739Z" fill="#D7E8F0"/>
<path opacity="0.21" d="M116.113 232.3H95.6876C94.7534 232.298 93.8396 232.025 93.057 231.514C92.2748 231.004 91.6576 230.276 91.2801 229.422C91.136 229.102 91.075 228.752 91.1027 228.403C91.13 228.055 91.2455 227.718 91.4377 227.425C91.6294 227.133 91.8923 226.894 92.2018 226.73C92.5109 226.566 92.8565 226.482 93.2067 226.488H114.921C113.904 228.211 114.412 230.604 116.113 232.3Z" fill="#D7E8F0"/>
<path opacity="0.21" d="M129.317 230.202C129.317 230.758 129.096 231.29 128.704 231.684C128.312 232.077 127.779 232.299 127.224 232.299H116.113C114.412 230.604 113.895 228.211 114.916 226.488H124.724C125.658 226.487 126.572 226.758 127.354 227.267C128.137 227.777 128.754 228.503 129.132 229.357C129.25 229.623 129.313 229.911 129.317 230.202Z" fill="#3D8BFD"/>
<path opacity="0.21" d="M124.207 232.3C124.152 232.414 124.086 232.52 124.008 232.619C122.548 234.61 119.388 234.795 116.935 233.007C116.643 232.793 116.368 232.557 116.113 232.3C114.412 230.605 113.895 228.212 114.916 226.488C114.974 226.376 115.042 226.269 115.119 226.17C116.565 224.165 119.739 223.994 122.179 225.772C122.475 225.99 122.754 226.229 123.015 226.488C124.701 228.189 125.219 230.563 124.207 232.3Z" fill="white"/>
<path opacity="0.21" d="M134.454 243.027C134.449 243.584 134.224 244.117 133.829 244.508C133.434 244.9 132.899 245.12 132.343 245.12H51.3956C52.4305 243.383 51.9131 241.008 50.2129 239.308H129.862C130.797 239.308 131.712 239.581 132.495 240.093C133.278 240.605 133.894 241.334 134.269 242.191C134.388 242.454 134.451 242.739 134.454 243.027Z" fill="#3D8BFD"/>
<path opacity="0.21" d="M51.3957 245.12H41.3057C40.3729 245.12 39.46 244.849 38.6778 244.341C37.8956 243.832 37.2775 243.108 36.8982 242.256C36.7822 241.987 36.7194 241.698 36.7134 241.406C36.7134 240.849 36.9342 240.316 37.3278 239.922C37.721 239.529 38.2546 239.308 38.8109 239.308H50.213C51.9132 241.008 52.4306 243.383 51.3957 245.12Z" fill="#D7E8F0"/>
<path opacity="0.21" d="M51.3954 245.121C51.3479 245.236 51.2841 245.344 51.206 245.44C49.76 247.445 46.586 247.621 44.1467 245.842C43.8505 245.623 43.571 245.382 43.3104 245.121C41.6241 243.426 41.1067 241.047 42.1185 239.309C42.173 239.196 42.2395 239.089 42.3171 238.991C43.7771 236.999 46.9371 236.815 49.3904 238.607C49.681 238.821 49.9559 239.056 50.2127 239.309C51.9129 241.01 52.4303 243.384 51.3954 245.121Z" fill="white"/>
<path opacity="0.21" d="M58.5336 257.849H45.6992C44.7664 257.847 43.8545 257.575 43.0723 257.067C42.2906 256.559 41.672 255.836 41.2917 254.984C41.1758 254.72 41.1129 254.436 41.1069 254.148C41.1092 253.589 41.3324 253.053 41.7279 252.658C42.1233 252.262 42.6593 252.039 43.2183 252.037H57.3416C56.3298 253.774 56.8473 256.153 58.5336 257.849Z" fill="#3D8BFD"/>
<path opacity="0.21" d="M138.852 255.765C138.852 256.04 138.797 256.311 138.691 256.565C138.585 256.818 138.43 257.048 138.236 257.242C138.041 257.436 137.81 257.589 137.556 257.693C137.302 257.797 137.029 257.85 136.755 257.849H58.5336C56.8473 256.153 56.3298 253.774 57.3416 252.037H134.255C135.191 252.037 136.106 252.309 136.889 252.821C137.671 253.333 138.288 254.062 138.663 254.919C138.783 255.186 138.847 255.473 138.852 255.765Z" fill="#D7E8F0"/>
<path opacity="0.21" d="M66.6324 257.849C66.5747 257.962 66.5068 258.068 66.4292 258.168C64.9831 260.173 61.8092 260.349 59.3698 258.57C59.0737 258.351 58.7942 258.11 58.5336 257.849C56.8473 256.154 56.3298 253.775 57.3416 252.038C57.3961 251.924 57.4627 251.818 57.5403 251.719C59.0002 249.728 62.1603 249.557 64.6135 251.335C64.9041 251.549 65.179 251.784 65.4359 252.038C67.136 253.738 67.6535 256.126 66.6324 257.849Z" fill="white"/>
</g>
</svg>
