<svg width="37" height="37" viewBox="0 0 37 37" fill="none" xmlns="http://www.w3.org/2000/svg">
<path d="M18.0368 36.0059C8.07552 36.0059 -6.53376e-05 27.9455 -6.53376e-05 18.0029C-6.53376e-05 8.05994 8.07552 0 18.0368 0C27.9981 0 36.0737 8.05994 36.0737 18.0029C36.0737 27.9455 27.9981 36.0059 18.0368 36.0059Z" fill="#3D8BFD"/>
<path d="M12.1053 11.9895C12.3598 11.4041 12.702 10.8609 13.1197 10.3785C13.8345 9.53466 14.8329 8.97961 15.9279 8.81763C17.0229 8.65565 18.1395 8.89774 19.0687 9.49813C19.6747 9.89252 20.1814 10.4216 20.5487 11.044C20.9156 11.6664 21.1339 12.365 21.1855 13.0855C22.135 12.7382 23.1718 12.7083 24.1398 13.0006C25.1073 13.2924 25.9541 13.891 26.5512 14.7053C27.1487 15.5196 27.4645 16.5056 27.4513 17.5149C27.438 18.5238 27.0963 19.5014 26.4775 20.2999C25.1854 21.9813 22.9892 23.0862 21.0003 23.7288C19.9574 24.062 18.8831 24.2891 17.7942 24.4067C17.243 24.4683 14.0987 24.8909 13.8252 24.4067C11.8628 21.3431 10.4692 15.7309 12.1053 11.9895Z" fill="white"/>
</svg>
