<svg width="37" height="37" viewBox="0 0 37 37" fill="none" xmlns="http://www.w3.org/2000/svg">
<path d="M18.0369 36.0059C27.9982 36.0059 36.0738 27.9455 36.0738 18.0029C36.0738 8.05994 27.9982 0 18.0369 0C8.07559 0 0 8.05994 0 18.0029C0 27.9455 8.07559 36.0059 18.0369 36.0059Z" fill="#3D8BFD"/>
<path d="M23.9684 11.9895C23.7139 11.4041 23.3717 10.8609 22.9541 10.3785C22.2392 9.53466 21.2408 8.97961 20.1458 8.81763C19.0508 8.65565 17.9342 8.89774 17.005 9.49813C16.3991 9.89252 15.8924 10.4216 15.525 11.044C15.1581 11.6664 14.9398 12.365 14.8882 13.0855C13.9387 12.7382 12.9019 12.7083 11.9339 13.0006C10.9664 13.2924 10.1197 13.891 9.52254 14.7053C8.92499 15.5196 8.60924 16.5056 8.62247 17.5149C8.6357 18.5238 8.97748 19.5014 9.5962 20.2999C10.8883 21.9813 13.0845 23.0862 15.0734 23.7288C16.1164 24.062 17.1907 24.2891 18.2795 24.4067C18.8307 24.4683 21.9751 24.8909 22.2485 24.4067C24.2109 21.3431 25.6045 15.7309 23.9684 11.9895Z" fill="white"/>
</svg>
