<svg width="32" height="28" viewBox="0 0 32 28" fill="none" xmlns="http://www.w3.org/2000/svg">
<path d="M29.6956 6.10693C30.2261 7.07222 30.6111 8.11058 30.8378 9.18812C31.2417 11.1592 31.1257 13.2016 30.5013 15.1141C29.8764 17.0271 28.7646 18.7451 27.2745 20.0999C26.0926 21.1431 24.5888 21.9574 23.3937 23.0491C22.5218 23.8 21.8797 24.7811 21.5415 25.8793C21.4797 26.2548 21.3285 26.6096 21.1005 26.9137C20.4037 27.662 19.7201 26.4736 19.116 26.2711C18.1422 25.9551 17.0861 26.0065 16.148 26.4163C13.6815 27.4459 10.9345 27.592 8.37233 26.8305C5.81012 26.0691 3.59101 24.4462 2.09028 22.2378C0.590001 20.0295 -0.0988402 17.3709 0.140182 14.7136C0.379645 12.0558 1.53241 9.5627 3.40314 7.65632C5.25093 5.7768 7.66761 4.57514 10.0181 3.35147C12.0732 2.26425 14.1194 1.10661 16.3509 0.455158C21.5811 -1.10744 27.1642 1.49396 29.6956 6.10693Z" fill="#3D8BFD"/>
<path d="M8.63382 19.7035C10.0221 19.7035 11.1475 18.5802 11.1475 17.1945C11.1475 15.8089 10.0221 14.6855 8.63382 14.6855C7.24555 14.6855 6.12012 15.8089 6.12012 17.1945C6.12012 18.5802 7.24555 19.7035 8.63382 19.7035Z" fill="white"/>
<path d="M15.4029 16.0892C16.7911 16.0892 17.9165 14.9659 17.9165 13.5803C17.9165 12.1946 16.7911 11.0713 15.4029 11.0713C14.0146 11.0713 12.8892 12.1946 12.8892 13.5803C12.8892 14.9659 14.0146 16.0892 15.4029 16.0892Z" fill="white"/>
<path d="M21.753 12.7006C23.1412 12.7006 24.2667 11.5772 24.2667 10.1916C24.2667 8.80594 23.1412 7.68262 21.753 7.68262C20.3647 7.68262 19.2393 8.80594 19.2393 10.1916C19.2393 11.5772 20.3647 12.7006 21.753 12.7006Z" fill="white"/>
</svg>
