<svg width="31" height="28" viewBox="0 0 31 28" fill="none" xmlns="http://www.w3.org/2000/svg">
<path d="M1.37818 6.10693C0.847654 7.07222 0.46265 8.11058 0.235975 9.18812C-0.16798 11.1592 -0.0519981 13.2016 0.572458 15.1141C1.19736 17.0271 2.30912 18.7451 3.79926 20.0999C4.98114 21.1431 6.48495 21.9574 7.68006 23.0491C8.55191 23.8 9.19402 24.7811 9.53226 25.8793C9.594 26.2548 9.74527 26.6096 9.97326 26.9137C10.67 27.662 11.3536 26.4736 11.9578 26.2711C12.9315 25.9551 13.9877 26.0065 14.9257 26.4163C17.3922 27.4459 20.1392 27.592 22.7014 26.8305C25.2636 26.0691 27.4827 24.4462 28.9834 22.2378C30.4837 20.0295 31.1726 17.3709 30.9335 14.7136C30.6941 12.0558 29.5413 9.5627 27.6706 7.65632C25.8228 5.7768 23.4061 4.57514 21.0556 3.35147C19.0005 2.26425 16.9543 1.10661 14.7228 0.455158C9.49258 -1.10744 3.90952 1.49396 1.37818 6.10693Z" fill="#3D8BFD"/>
<path d="M22.4404 19.7035C21.0521 19.7035 19.9267 18.5802 19.9267 17.1945C19.9267 15.8089 21.0521 14.6855 22.4404 14.6855C23.8287 14.6855 24.9541 15.8089 24.9541 17.1945C24.9541 18.5802 23.8287 19.7035 22.4404 19.7035Z" fill="white"/>
<path d="M15.6709 16.0892C14.2826 16.0892 13.1572 14.9659 13.1572 13.5803C13.1572 12.1946 14.2826 11.0713 15.6709 11.0713C17.0591 11.0713 18.1846 12.1946 18.1846 13.5803C18.1846 14.9659 17.0591 16.0892 15.6709 16.0892Z" fill="white"/>
<path d="M9.32028 12.7006C7.93201 12.7006 6.80657 11.5772 6.80657 10.1916C6.80657 8.80594 7.93201 7.68262 9.32028 7.68262C10.7085 7.68262 11.834 8.80594 11.834 10.1916C11.834 11.5772 10.7085 12.7006 9.32028 12.7006Z" fill="white"/>
</svg>
