<svg width="103" height="82" viewBox="0 0 103 82" fill="none" xmlns="http://www.w3.org/2000/svg">
<path d="M18.0369 45.2808C27.9982 45.2808 36.0738 37.2204 36.0738 27.2778C36.0738 17.3348 27.9982 9.2749 18.0369 9.2749C8.07559 9.2749 0 17.3348 0 27.2778C0 37.2204 8.07559 45.2808 18.0369 45.2808Z" fill="#3D8BFD"/>
<path d="M23.9684 21.2646C23.7139 20.6792 23.3717 20.136 22.9541 19.6536C22.2392 18.8098 21.2408 18.2548 20.1458 18.0928C19.0508 17.9308 17.9342 18.1729 17.005 18.7733C16.3991 19.1677 15.8924 19.6967 15.525 20.3191C15.1581 20.9415 14.9398 21.6401 14.8882 22.3607C13.9387 22.0134 12.9019 21.9834 11.9339 22.2757C10.9664 22.5675 10.1197 23.1662 9.52254 23.9805C8.92499 24.7948 8.60924 25.7808 8.62247 26.7901C8.6357 27.799 8.97748 28.7766 9.5962 29.575C10.8883 31.2565 13.0845 32.3613 15.0734 33.0039C16.1164 33.3372 17.1907 33.5643 18.2795 33.6818C18.8307 33.7434 21.9751 34.166 22.2485 33.6818C24.2109 30.6182 25.6045 25.0061 23.9684 21.2646Z" fill="white"/>
<g opacity="0.72">
<path opacity="0.72" d="M62.9926 19.8252C68.4778 19.8252 72.9239 15.3874 72.9239 9.91261C72.9239 4.43822 68.4778 0 62.9926 0C57.5079 0 53.0613 4.43822 53.0613 9.91261C53.0613 15.3874 57.5079 19.8252 62.9926 19.8252Z" fill="#3D8BFD"/>
<path opacity="0.72" d="M67.3012 11.6685C67.5473 11.4185 67.7523 11.1319 67.9098 10.819C68.1929 10.2793 68.2692 9.65472 68.1236 9.06313C67.9786 8.47154 67.6218 7.95302 67.1204 7.60573C66.7927 7.37992 66.4174 7.2329 66.0232 7.17612C65.6293 7.11978 65.2272 7.15544 64.8492 7.28001C64.8281 6.72451 64.6261 6.19103 64.2746 5.7601C63.9227 5.32918 63.4402 5.02413 62.8996 4.89076C62.3589 4.75783 61.7895 4.80361 61.2771 5.02194C60.7651 5.23982 60.3378 5.61836 60.0599 6.10034C59.5197 7.1902 59.3098 8.41431 59.4558 9.6217C59.5056 10.2177 59.6146 10.8075 59.7821 11.3824C59.8659 11.6773 60.3069 13.3632 60.6068 13.416C62.5781 13.7461 65.7356 13.2839 67.3012 11.6685Z" fill="white"/>
</g>
<path d="M48.7612 56.7224L44.0403 66.6865C42.3283 70.2995 43.8749 74.6131 47.4946 76.3218L57.4771 81.0339C61.0968 82.7426 65.4191 81.1985 67.131 77.5856L71.852 67.6219C73.5635 64.009 72.0169 59.6949 68.3972 57.9866L58.4147 53.2746C54.795 51.5658 50.4727 53.1095 48.7612 56.7224Z" fill="#3D8BFD"/>
<path d="M69.1576 69.3664L65.7398 76.5808C65.0228 78.0836 63.739 79.2421 62.1695 79.8038C60.5995 80.365 58.8708 80.284 57.3608 79.5784L48.6908 75.4848C47.1861 74.7682 46.0263 73.4869 45.4649 71.9199C44.903 70.3533 44.9846 68.6283 45.692 67.1216L45.9213 66.6374C48.2762 64.7623 52.3467 62.2357 53.8328 65.6734C55.9717 70.6385 58.7544 69.0363 62.3089 66.9587C65.2768 65.2068 68.8401 64.6214 69.1576 69.3664Z" fill="white"/>
<path d="M55.7294 61.6991C57.2027 61.6991 58.3974 60.5067 58.3974 59.0361C58.3974 57.565 57.2027 56.373 55.7294 56.373C54.256 56.373 53.0613 57.565 53.0613 59.0361C53.0613 60.5067 54.256 61.6991 55.7294 61.6991Z" fill="white"/>
<path d="M101.249 24.0421C101.78 25.0074 102.165 26.0458 102.391 27.1233C102.795 29.0944 102.679 31.1368 102.055 33.0493C101.43 34.9623 100.318 36.6803 98.8282 38.0351C97.6463 39.0783 96.1425 39.8926 94.9474 40.9842C94.0755 41.7352 93.4334 42.7163 93.0952 43.8145C93.0334 44.19 92.8822 44.5448 92.6542 44.8489C91.9574 45.5972 91.2738 44.4088 90.6697 44.2063C89.6959 43.8902 88.6398 43.9417 87.7018 44.3515C85.2352 45.3811 82.4882 45.5272 79.926 44.7657C77.3638 44.0042 75.1447 42.3813 73.644 40.173C72.1437 37.9647 71.4549 35.3061 71.6939 32.6488C71.9334 29.991 73.0861 27.4979 74.9568 25.5915C76.8046 23.712 79.2213 22.5103 81.5718 21.2866C83.6269 20.1994 85.6731 19.0418 87.9046 18.3903C93.1349 16.8277 98.7179 19.4291 101.249 24.0421Z" fill="#3D8BFD"/>
<path d="M80.1873 37.639C81.5756 37.639 82.701 36.5157 82.701 35.1301C82.701 33.7444 81.5756 32.6211 80.1873 32.6211C78.799 32.6211 77.6736 33.7444 77.6736 35.1301C77.6736 36.5157 78.799 37.639 80.1873 37.639Z" fill="white"/>
<path d="M86.9566 34.025C88.3448 34.025 89.4703 32.9017 89.4703 31.5161C89.4703 30.1304 88.3448 29.0071 86.9566 29.0071C85.5683 29.0071 84.4429 30.1304 84.4429 31.5161C84.4429 32.9017 85.5683 34.025 86.9566 34.025Z" fill="white"/>
<path d="M93.7671 29.9703C95.1554 29.9703 96.2808 28.847 96.2808 27.4614C96.2808 26.0757 95.1554 24.9524 93.7671 24.9524C92.3788 24.9524 91.2534 26.0757 91.2534 27.4614C91.2534 28.847 92.3788 29.9703 93.7671 29.9703Z" fill="white"/>
</svg>
